<svg xmlns="http://www.w3.org/2000/svg" viewBox="0 0 500 500" class="iconify iconify--logos" width="60" height="60"><g id="freepik--background-simple--inject-2"><g><path d="M175.288,56.207c-24.999,3.3-49.105,10.326-70.484,21.346-25.198,12.989-50.945,33.224-43.341,59.691,14.039,48.862,81.388,49.752,67.941,82.606-15.232,37.214-5.017,80.867,63.331,93.006,129.817,23.056,286.747-111.851,242.671-185.982-27.44-46.151-127.381-88.189-260.118-70.667Z" style="fill:#407BFF;"></path><path d="M175.288,56.207c-24.999,3.3-49.105,10.326-70.484,21.346-25.198,12.989-50.945,33.224-43.341,59.691,14.039,48.862,81.388,49.752,67.941,82.606-15.232,37.214-5.017,80.867,63.331,93.006,129.817,23.056,286.747-111.851,242.671-185.982-27.44-46.151-127.381-88.189-260.118-70.667Z" style="fill:#fff; opacity:.9;"></path></g></g><g id="freepik--Shadow--inject-2"><ellipse cx="250.599" cy="435.988" rx="223.432" ry="12.388" style="fill:#f5f5f5;"></ellipse></g><g id="freepik--Computer--inject-2"><g><rect x="115.863" y="82.466" width="269.13" height="226.166" style="fill:#407BFF;"></rect><rect x="145.185" y="113.735" width="209.546" height="162.591" style="fill:#263238;"></rect><rect x="183.13" y="308.632" width="139.595" height="22.58" style="fill:#407BFF;"></rect><rect x="165.937" y="331.211" width="173.98" height="14.261" style="fill:#407BFF;"></rect><rect x="108.324" y="345.472" width="283.268" height="76.082" style="fill:#407BFF;"></rect><path d="M229.295,372.858H117.227v-15.315h112.068v15.315Zm-111.318-.75h110.568v-13.815H117.977v13.815Z" style="fill:#263238;"></path><rect x="210.194" y="376.698" width="18.726" height="6.521" rx="3.048" ry="3.048" style="opacity:.4;"></rect><circle cx="202.11" cy="379.958" r="2.967" style="fill:#fff; opacity:.4;"></circle><rect x="295.269" y="362.049" width="89.297" height="6.304" style="opacity:.4;"></rect><rect x="367.827" y="373.72" width="16.739" height="5.955" style="fill:#fff; opacity:.4;"></rect><path d="M346.864,405.611c0,1.424-1.155,2.579-2.579,2.579s-2.579-1.155-2.579-2.579,1.155-2.579,2.579-2.579,2.579,1.155,2.579,2.579Z" style="opacity:.4;"></path><path d="M353.838,405.611c0,1.424-1.155,2.579-2.579,2.579s-2.579-1.155-2.579-2.579,1.155-2.579,2.579-2.579,2.579,1.155,2.579,2.579Z" style="opacity:.4;"></path><path d="M360.812,405.611c0,1.424-1.155,2.579-2.579,2.579s-2.579-1.155-2.579-2.579,1.155-2.579,2.579-2.579,2.579,1.155,2.579,2.579Z" style="opacity:.4;"></path><path d="M368.32,399.934c3.135-3.135,8.218-3.135,11.354,0,3.135,3.135,3.135,8.219,0,11.354-3.135,3.135-8.218,3.135-11.354,0-3.135-3.135-3.135-8.218,0-11.354Z" style="opacity:.4;"></path><rect x="165.937" y="331.211" width="173.98" height="14.261" style="opacity:.4;"></rect><rect x="119.417" y="397.537" width=".75" height="10.348" style="opacity:.4;"></rect><rect x="123.105" y="397.537" width=".75" height="10.348" style="opacity:.4;"></rect><rect x="126.794" y="397.537" width=".75" height="10.348" style="opacity:.4;"></rect><rect x="130.483" y="397.537" width=".75" height="10.348" style="opacity:.4;"></rect><rect x="134.171" y="397.537" width=".75" height="10.348" style="opacity:.4;"></rect><rect x="137.86" y="397.537" width=".75" height="10.348" style="opacity:.4;"></rect><rect x="141.549" y="397.537" width=".75" height="10.348" style="opacity:.4;"></rect><rect x="145.237" y="397.537" width=".75" height="10.348" style="opacity:.4;"></rect><rect x="148.926" y="397.537" width=".75" height="10.348" style="opacity:.4;"></rect><rect x="152.615" y="397.537" width=".75" height="10.348" style="opacity:.4;"></rect><rect x="156.303" y="397.537" width=".75" height="10.348" style="opacity:.4;"></rect><rect x="159.992" y="397.537" width=".75" height="10.348" style="opacity:.4;"></rect><rect x="163.681" y="397.537" width=".75" height="10.348" style="opacity:.4;"></rect><rect x="167.37" y="397.537" width=".75" height="10.348" style="opacity:.4;"></rect><rect x="171.058" y="397.537" width=".75" height="10.348" style="opacity:.4;"></rect><rect x="174.747" y="397.537" width=".75" height="10.348" style="opacity:.4;"></rect><rect x="178.436" y="397.537" width=".75" height="10.348" style="opacity:.4;"></rect><rect x="182.124" y="397.537" width=".75" height="10.348" style="opacity:.4;"></rect><rect x="185.813" y="397.537" width=".75" height="10.348" style="opacity:.4;"></rect><rect x="189.501" y="397.537" width=".75" height="10.348" style="opacity:.4;"></rect><rect x="193.19" y="397.537" width=".75" height="10.348" style="opacity:.4;"></rect><rect x="196.879" y="397.537" width=".75" height="10.348" style="opacity:.4;"></rect><rect x="200.567" y="397.537" width=".75" height="10.348" style="opacity:.4;"></rect><rect x="204.256" y="397.537" width=".75" height="10.348" style="opacity:.4;"></rect><rect x="207.945" y="397.537" width=".75" height="10.348" style="opacity:.4;"></rect><rect x="211.634" y="397.537" width=".75" height="10.348" style="opacity:.4;"></rect><rect x="215.322" y="397.537" width=".75" height="10.348" style="opacity:.4;"></rect><rect x="219.011" y="397.537" width=".75" height="10.348" style="opacity:.4;"></rect><rect x="222.7" y="397.537" width=".75" height="10.348" style="opacity:.4;"></rect><rect x="226.388" y="397.537" width=".75" height="10.348" style="opacity:.4;"></rect><rect x="230.077" y="397.537" width=".75" height="10.348" style="opacity:.4;"></rect><polygon points="183.13 308.632 322.724 308.632 322.724 316.241 183.175 315.954 183.13 308.632" style="opacity:.4;"></polygon><polygon points="145.185 276.325 137.286 282.329 362.63 282.329 354.731 276.325 145.185 276.325" style="opacity:.4;"></polygon><polygon points="354.731 113.735 362.63 106.23 137.286 106.23 145.185 113.735 354.731 113.735" style="opacity:.4;"></polygon><polygon points="354.731 276.325 362.63 282.329 362.63 106.23 354.731 113.735 354.731 276.325" style="fill:#fff; opacity:.4;"></polygon><polygon points="145.185 276.325 137.286 282.329 137.286 106.23 145.185 113.735 145.185 276.325" style="fill:#fff; opacity:.4;"></polygon><path d="M152.99,118.853c-.778,1.751-5.644,147.708,0,150.627,5.644,2.919,191.519,4.087,195.204,2.335s2.973-149.219-1.947-152.532c-5.742-3.867-193.258-.431-193.258-.431Z" style="fill:#fff; opacity:.2;"></path><path d="M384.938,368.728h-90.044v-6.862h90.115l-.071,6.862Zm-89.294-.75h88.552l.056-5.362h-88.607v5.362Z" style="fill:#263238;"></path><rect x="108.324" y="390.945" width="283.268" height=".75" style="opacity:.4;"></rect></g></g><g id="freepik--Documents--inject-2"><g><g><g><polygon points="192.642 181.957 164.979 181.957 164.979 149.031 187.441 149.031 192.642 154.454 192.642 181.957" style="fill:#fff;"></polygon><path d="M193.017,182.332h-28.412v-33.676h22.997l5.416,5.647v28.029Zm-27.662-.75h26.912v-26.977l-4.986-5.199h-21.926v32.176Z"></path></g><g><polygon points="187.251 149.031 187.251 154.4 192.642 154.454 187.251 149.031" style="fill:#fff;"></polygon><path d="M192.642,154.829h-.004l-5.391-.054c-.206-.002-.371-.169-.371-.375v-5.37c0-.152,.092-.289,.232-.347,.141-.057,.302-.026,.409,.083l5.391,5.423c.107,.108,.139,.27,.08,.41-.059,.139-.195,.229-.346,.229Zm-5.016-.8l4.105,.041-4.105-4.13v4.089Z"></path></g></g><g><rect x="170.567" y="157.383" width="16.487" height=".75"></rect><rect x="170.567" y="159.722" width="16.487" height=".75"></rect><rect x="170.567" y="162.061" width="9.635" height=".75"></rect><rect x="170.567" y="164.399" width="16.487" height=".75"></rect><rect x="170.567" y="166.738" width="16.487" height=".75"></rect><rect x="170.567" y="169.077" width="16.487" height=".75"></rect><rect x="170.567" y="171.415" width="16.487" height=".75"></rect><rect x="170.567" y="173.754" width="8.244" height=".75"></rect></g></g><g><g><g><polygon points="309.1 163.176 281.438 163.176 281.438 130.249 303.899 130.249 309.1 135.672 309.1 163.176" style="fill:#fff;"></polygon><path d="M309.475,163.55h-28.412v-33.676h22.997l5.415,5.647v28.029Zm-27.662-.75h26.912v-26.977l-4.985-5.199h-21.927v32.176Z"></path></g><g><polygon points="303.709 130.249 303.709 135.619 309.1 135.672 303.709 130.249" style="fill:#fff;"></polygon><path d="M309.1,136.047h-.004l-5.391-.053c-.205-.002-.371-.169-.371-.375v-5.37c0-.152,.092-.289,.232-.347,.141-.057,.303-.025,.408,.083l5.391,5.423c.107,.108,.139,.27,.08,.41-.059,.139-.195,.229-.346,.229Zm-5.016-.799l4.105,.041-4.105-4.13v4.089Z"></path></g></g><g><rect x="287.025" y="138.602" width="16.487" height=".75"></rect><rect x="287.025" y="140.94" width="16.487" height=".75"></rect><rect x="287.025" y="143.279" width="9.635" height=".75"></rect><rect x="287.025" y="145.618" width="16.487" height=".75"></rect><rect x="287.025" y="147.957" width="16.487" height=".75"></rect><rect x="287.025" y="150.295" width="16.487" height=".75"></rect><rect x="287.025" y="152.634" width="16.487" height=".75"></rect><rect x="287.025" y="154.972" width="8.243" height=".75"></rect></g></g><g><g><g><polygon points="327.278 242.033 299.616 242.033 299.616 209.107 322.077 209.107 327.278 214.53 327.278 242.033" style="fill:#fff;"></polygon><path d="M327.653,242.408h-28.413v-33.676h22.997l5.416,5.647v28.029Zm-27.663-.75h26.913v-26.977l-4.986-5.199h-21.927v32.176Z"></path></g><g><polygon points="321.887 209.107 321.887 214.476 327.278 214.53 321.887 209.107" style="fill:#fff;"></polygon><path d="M327.278,214.905h-.004l-5.391-.054c-.205-.002-.371-.169-.371-.375v-5.37c0-.152,.092-.289,.232-.347,.141-.057,.302-.025,.408,.083l5.391,5.423c.107,.108,.139,.27,.08,.41-.059,.139-.195,.229-.346,.229Zm-5.016-.8l4.105,.041-4.105-4.13v4.089Z"></path></g></g><g><rect x="305.203" y="217.459" width="16.487" height=".75"></rect><rect x="305.203" y="219.797" width="16.487" height=".75"></rect><rect x="305.203" y="222.136" width="9.635" height=".75"></rect><rect x="305.203" y="224.475" width="16.487" height=".75"></rect><rect x="305.203" y="226.813" width="16.487" height=".75"></rect><rect x="305.203" y="229.152" width="16.487" height=".75"></rect><rect x="305.203" y="231.491" width="16.487" height=".75"></rect><rect x="305.203" y="233.829" width="8.244" height=".75"></rect></g></g><g><g><g><polygon points="341.227 256.877 313.565 256.877 313.565 223.951 336.027 223.951 341.227 229.374 341.227 256.877" style="fill:#fff;"></polygon><path d="M341.603,257.252h-28.412v-33.676h22.997l5.415,5.647v28.029Zm-27.662-.75h26.912v-26.977l-4.985-5.199h-21.927v32.176Z"></path></g><g><polygon points="335.837 223.951 335.837 229.32 341.227 229.374 335.837 223.951" style="fill:#fff;"></polygon><path d="M341.228,229.749h-.004l-5.391-.054c-.205-.002-.371-.169-.371-.375v-5.37c0-.152,.092-.289,.232-.347,.141-.057,.303-.025,.408,.083l5.391,5.423c.107,.108,.139,.27,.08,.41-.059,.139-.195,.229-.346,.229Zm-5.016-.8l4.105,.041-4.105-4.13v4.089Z"></path></g></g><g><rect x="319.152" y="232.303" width="16.487" height=".75"></rect><rect x="319.152" y="234.642" width="16.487" height=".75"></rect><rect x="319.152" y="236.98" width="9.635" height=".75"></rect><rect x="319.152" y="239.319" width="16.487" height=".75"></rect><rect x="319.152" y="241.658" width="16.487" height=".75"></rect><rect x="319.152" y="243.996" width="16.487" height=".75"></rect><rect x="319.152" y="246.335" width="16.487" height=".75"></rect><rect x="319.152" y="248.674" width="8.244" height=".75"></rect></g></g><g><g><g><polygon points="273.843 259.216 246.18 259.216 246.18 226.289 268.642 226.289 273.843 231.712 273.843 259.216" style="fill:#fff;"></polygon><path d="M274.218,259.591h-28.412v-33.676h22.997l5.415,5.647v28.029Zm-27.662-.75h26.912v-26.978l-4.985-5.199h-21.927v32.176Z"></path></g><g><polygon points="268.452 226.289 268.452 231.659 273.843 231.712 268.452 226.289" style="fill:#fff;"></polygon><path d="M273.843,232.087h-.004l-5.391-.053c-.205-.002-.371-.169-.371-.375v-5.37c0-.152,.092-.289,.232-.347,.141-.057,.303-.025,.408,.083l5.391,5.423c.107,.108,.139,.27,.08,.41-.059,.139-.195,.229-.346,.229Zm-5.016-.799l4.105,.041-4.105-4.13v4.089Z"></path></g></g><g><rect x="251.768" y="234.642" width="16.488" height=".75"></rect><rect x="251.768" y="236.98" width="16.488" height=".75"></rect><rect x="251.768" y="239.319" width="9.635" height=".75"></rect><rect x="251.768" y="241.658" width="16.488" height=".75"></rect><rect x="251.768" y="243.996" width="16.488" height=".75"></rect><rect x="251.768" y="246.335" width="16.488" height=".75"></rect><rect x="251.768" y="248.674" width="16.488" height=".75"></rect><rect x="251.768" y="251.012" width="8.244" height=".75"></rect></g></g></g><g id="freepik--Tab--inject-2"><g><rect x="182.297" y="168.797" width="145.064" height="53.503" style="fill:#407BFF;"></rect><rect x="182.297" y="168.797" width="145.064" height="53.503" style="fill:#fff; opacity:.7;"></rect><rect x="182.297" y="168.797" width="145.064" height="9.928" style="fill:#407BFF;"></rect><path d="M325.102,176.696h-7.95v-7.039h7.95v7.039Zm-7.2-.75h6.45v-5.539h-6.45v5.539Z"></path><g><rect x="318.533" y="172.853" width="5.083" height=".751" transform="translate(-28.354 278.093) rotate(-45.053)"></rect><rect x="320.806" y="170.61" width=".751" height="5.237" transform="translate(-25.244 287.922) rotate(-46.659)"></rect></g><g><rect x="190.278" y="196.927" width="3.453" height="10.568" style="fill:#407BFF;"></rect><g><path d="M321.636,209.344H188.022v-14.17h133.613v14.17Zm-132.863-.75h132.113v-12.67H188.772v12.67Z"></path><rect x="196.138" y="196.927" width="3.453" height="10.568" style="fill:#407BFF;"></rect><rect x="201.997" y="196.927" width="3.453" height="10.568" style="fill:#407BFF;"></rect><rect x="207.856" y="196.927" width="3.453" height="10.568" style="fill:#407BFF;"></rect><rect x="213.716" y="196.927" width="3.453" height="10.568" style="fill:#407BFF;"></rect><rect x="219.575" y="196.927" width="3.453" height="10.568" style="fill:#407BFF;"></rect><rect x="225.435" y="196.927" width="3.453" height="10.568" style="fill:#407BFF;"></rect><rect x="231.294" y="196.927" width="3.453" height="10.568" style="fill:#407BFF;"></rect><rect x="237.154" y="196.927" width="3.453" height="10.568" style="fill:#407BFF;"></rect><rect x="243.013" y="196.927" width="3.453" height="10.568" style="fill:#407BFF;"></rect><rect x="248.872" y="196.927" width="3.453" height="10.568" style="fill:#407BFF;"></rect><rect x="254.732" y="196.927" width="3.453" height="10.568" style="fill:#407BFF;"></rect><rect x="190.56" y="197.676" width="128.067" height=".75" style="fill:#fff;"></rect></g></g><polygon points="317.526 176.321 317.526 177.046 325.424 177.046 325.424 170.032 324.727 170.032 324.727 176.321 317.526 176.321" style="opacity:.3;"></polygon><polygon points="190.278 208.969 190.278 210.944 322.872 210.944 322.872 195.549 321.261 195.549 321.261 208.969 190.278 208.969" style="opacity:.3;"></polygon></g></g><g id="freepik--Mouse--inject-2"><g><path d="M414.061,421.256h14.573c7.601,0,13.772,6.171,13.772,13.772v.96h-42.118v-.96c0-7.601,6.171-13.772,13.772-13.772Z" style="fill:#407BFF;"></path><path d="M441.853,434.668h-40.919c-.207,0-.375-.168-.375-.375s.168-.375,.375-.375h40.919c.207,0,.375,.168,.375,.375s-.168,.375-.375,.375Z" style="opacity:.2;"></path></g></g><g id="freepik--Keyboard--inject-2"><g><rect x="46.822" y="413.89" width="19.372" height="6.621" style="fill:#407BFF;"></rect><rect x="46.822" y="413.89" width="19.372" height="6.621" style="opacity:.4;"></rect><rect x="70.876" y="413.89" width="13.501" height="6.621" style="fill:#407BFF;"></rect><rect x="70.876" y="413.89" width="13.501" height="6.621" style="opacity:.4;"></rect><rect x="89.116" y="413.89" width="13.501" height="6.621" style="fill:#407BFF;"></rect><rect x="89.116" y="413.89" width="13.501" height="6.621" style="opacity:.4;"></rect><rect x="107.356" y="413.89" width="13.501" height="6.621" style="fill:#407BFF;"></rect><rect x="107.356" y="413.89" width="13.501" height="6.621" style="opacity:.4;"></rect><rect x="197.462" y="413.89" width="10.374" height="6.621" style="fill:#407BFF;"></rect><rect x="197.462" y="413.89" width="10.374" height="6.621" style="opacity:.4;"></rect><rect x="212.812" y="413.89" width="10.374" height="6.621" style="fill:#407BFF;"></rect><rect x="212.812" y="413.89" width="10.374" height="6.621" style="opacity:.4;"></rect><rect x="228.162" y="413.89" width="10.374" height="6.621" style="fill:#407BFF;"></rect><rect x="228.162" y="413.89" width="10.374" height="6.621" style="opacity:.4;"></rect><rect x="243.511" y="413.89" width="10.374" height="6.621" style="fill:#407BFF;"></rect><rect x="243.511" y="413.89" width="10.374" height="6.621" style="opacity:.4;"></rect><rect x="285.103" y="413.89" width="10.374" height="6.621" style="fill:#407BFF;"></rect><rect x="285.103" y="413.89" width="10.374" height="6.621" style="opacity:.4;"></rect><rect x="300.234" y="413.89" width="10.374" height="6.621" style="fill:#407BFF;"></rect><rect x="300.234" y="413.89" width="10.374" height="6.621" style="opacity:.4;"></rect><rect x="315.365" y="413.89" width="10.374" height="6.621" style="fill:#407BFF;"></rect><rect x="315.365" y="413.89" width="10.374" height="6.621" style="opacity:.4;"></rect><rect x="330.496" y="413.89" width="28.056" height="6.621" style="fill:#407BFF;"></rect><rect x="330.496" y="413.89" width="28.056" height="6.621" style="opacity:.4;"></rect><rect x="258.861" y="413.89" width="20.202" height="6.621" style="fill:#407BFF;"></rect><rect x="258.861" y="413.89" width="20.202" height="6.621" style="opacity:.4;"></rect><rect x="125.596" y="413.89" width="66.398" height="6.621" style="fill:#407BFF;"></rect><rect x="125.596" y="413.89" width="66.398" height="6.621" style="opacity:.4;"></rect><rect x="41.677" y="419.257" width="322.218" height="13.702" style="fill:#407BFF;"></rect><rect x="41.677" y="419.257" width="322.218" height="13.702" style="opacity:.3;"></rect><rect x="42.778" y="428.247" width="320.38" height=".75" style="opacity:.2;"></rect></g></g></svg>
